<?xml version="1.0" standalone="no"?>
<!DOCTYPE svg PUBLIC "-//W3C//DTD SVG 20010904//EN"
 "http://www.w3.org/TR/2001/REC-SVG-20010904/DTD/svg10.dtd">
<svg version="1.0" xmlns="http://www.w3.org/2000/svg"
 width="848.000000pt" height="848.000000pt" viewBox="0 0 848.000000 848.000000"
 preserveAspectRatio="xMidYMid meet">
<metadata>
Created by potrace 1.14, written by Peter Selinger 2001-2017
</metadata>
<g transform="translate(0.000000,848.000000) scale(0.100000,-0.100000)"
fill="#000000" stroke="none">
<path d="M769 7486 c-2 -2 -22 -6 -44 -10 -172 -25 -337 -110 -469 -242 -60
-60 -138 -168 -129 -178 3 -3 2 -6 -4 -6 -6 0 -18 -19 -28 -42 -9 -24 -23 -56
-31 -73 -7 -16 -23 -70 -34 -120 -19 -88 -20 -133 -19 -2570 0 -2645 -2 -2545
48 -2680 12 -33 25 -70 28 -83 3 -12 9 -22 14 -22 5 0 9 -5 9 -10 0 -27 89
-146 166 -224 72 -73 228 -167 309 -186 6 -1 21 -7 35 -12 14 -5 36 -12 50
-15 14 -3 36 -8 50 -11 37 -9 7018 -8 7064 1 21 4 47 12 57 18 10 5 19 7 19 5
0 -16 209 81 252 117 14 12 36 29 48 37 91 61 230 251 264 361 5 13 10 29 12
34 2 6 13 48 24 95 19 84 19 127 19 2570 0 2704 4 2534 -55 2698 -14 39 -30
72 -35 72 -5 0 -8 4 -7 8 4 11 -35 82 -44 82 -5 0 -8 5 -8 12 0 16 -74 104
-124 148 -22 19 -48 42 -57 51 -22 21 -124 81 -182 107 -41 18 -99 37 -182 59
-29 8 -7008 17 -7016 9z"/>
</g>
</svg>
